name analog
datacolumns 19
datarows 23
range 0.0 0.011
endheader
time	ground_force_vx	ground_force_vy	ground_force_vz	ground_force_px	ground_force_py	ground_force_pz	l_ground_force_vx	l_ground_force_vy	l_ground_force_vz	l_ground_force_px	l_ground_force_py	l_ground_force_pz	ground_torque_x	ground_torque_y	ground_torque_z	l_ground_torque_x	l_ground_torque_y	l_ground_torque_z
0.0	-0.0	-0.0	-0.0	2.825363874435425	10.034096717834473	-503.9285278320313	-4.450241088867188	-12.136913299560549	-212.7211151123047	-0.0	-0.0	-0.0	-0.0	-0.0	-0.0	77363.828125	438.2051696777344	-3153.177490234375
0.0005	-0.0	-0.0	-0.0	3.107332944869995	10.01165008544922	-503.7218933105469	-4.25811767578125	-12.136876106262209	-213.59344482421875	-0.0	-0.0	-0.0	-0.0	-0.0	-0.0	77320.3984375	526.553466796875	-3269.155517578125
0.001	-0.0	-0.0	-0.0	3.1676275730133057	9.930502891540527	-503.6345825195313	-4.672015190124512	-12.313493728637695	-213.38999938964844	-0.0	-0.0	-0.0	-0.0	-0.0	-0.0	77451.0703125	644.2173461914062	-3309.07568359375
0.0015	-0.0	-0.0	-0.0	2.980971097946167	9.969216346740724	-504.4275207519531	-4.435539245605469	-11.967235565185549	-212.98248291015625	-0.0	-0.0	-0.0	-0.0	-0.0	-0.0	77129.0390625	458.4981994628906	-3281.578857421875
0.002	-0.0	-0.0	-0.0	3.553183078765869	10.258713722229004	-504.840576171875	-4.495452404022217	-12.136775970458984	-212.2252349853516	-0.0	-0.0	-0.0	-0.0	-0.0	-0.0	77116.4453125	605.3836669921875	-3204.98779296875
0.0025	-0.0	-0.0	-0.0	3.783802270889282	9.862924575805664	-504.2551574707031	-4.4588165283203125	-12.02671241760254	-211.87586975097656	-0.0	-0.0	-0.0	-0.0	-0.0	-0.0	77147.78125	635.9765014648438	-3251.925537109375
0.003	-0.0	-0.0	-0.0	3.882144927978516	10.17621612548828	-504.901123046875	-4.552542686462402	-12.041826248168944	-212.57388305664065	-0.0	-0.0	-0.0	-0.0	-0.0	-0.0	76928.4921875	490.419189453125	-3210.0126953125
0.0035	-0.0	-0.0	-0.0	3.768287181854248	9.87804889678955	-504.4869689941406	-4.59137487411499	-12.173279762268066	-212.3439178466797	-0.0	-0.0	-0.0	-0.0	-0.0	-0.0	77135.2109375	498.1183471679688	-3301.2080078125
0.004	-0.0	-0.0	-0.0	3.8515431880950928	9.899346351623535	-505.654296875	-4.716902256011963	-11.841357231140137	-212.8378753662109	-0.0	-0.0	-0.0	-0.0	-0.0	-0.0	76939.9375	631.7394409179688	-3311.356201171875
0.0045000000000000005	-0.0	-0.0	-0.0	4.076739311218262	9.945816040039062	-503.4662780761719	-4.857696533203125	-12.121374130249023	-211.5016632080078	-0.0	-0.0	-0.0	-0.0	-0.0	-0.0	76949.84375	439.0367126464844	-3339.142333984375
0.005	-0.0	-0.0	-0.0	3.8204097747802734	10.181988716125488	-505.1310119628906	-4.827047348022461	-11.99643611907959	-212.24688720703125	-0.0	-0.0	-0.0	-0.0	-0.0	-0.0	77196.1484375	597.5350341796875	-3381.063232421875
0.0055	-0.0	-0.0	-0.0	3.720374822616577	10.181922912597656	-503.44830322265625	-5.056514739990234	-12.142322540283203	-212.8382568359375	-0.0	-0.0	-0.0	-0.0	-0.0	-0.0	77297.9296875	558.5244140625	-3360.654296875
0.006	-0.0	-0.0	-0.0	3.515934467315674	9.825288772583008	-504.3409423828125	-4.759383678436279	-11.996317863464355	-212.8994140625	-0.0	-0.0	-0.0	-0.0	-0.0	-0.0	77274.1640625	659.8090209960938	-3368.833984375
0.006500000000000001	-0.0	-0.0	-0.0	3.6367807388305664	9.82016658782959	-504.1957092285156	-4.686097145080566	-11.975341796875	-214.17385864257807	-0.0	-0.0	-0.0	-0.0	-0.0	-0.0	77406.0	729.5881958007812	-3386.2626953125
0.007	-0.0	-0.0	-0.0	3.2848830223083496	10.197484970092772	-504.6119995117188	-4.899984359741211	-11.95457649230957	-213.5369873046875	-0.0	-0.0	-0.0	-0.0	-0.0	-0.0	77408.3515625	806.4327392578125	-3355.08203125
0.0075	-0.0	-0.0	-0.0	3.543097496032715	9.861559867858888	-504.6941528320313	-4.685963153839111	-12.068791389465332	-214.1735992431641	-0.0	-0.0	-0.0	-0.0	-0.0	-0.0	77706.2734375	633.6328125	-3340.976318359375
0.008	-0.0	-0.0	-0.0	3.483696937561035	10.270511627197266	-505.1286010742188	-5.161009311676025	-11.939142227172852	-214.85247802734372	-0.0	-0.0	-0.0	-0.0	-0.0	-0.0	77458.90625	456.9070129394531	-3358.739501953125
0.0085	-0.0	-0.0	-0.0	3.811332225799561	9.783941268920898	-504.3239440917969	-4.936086654663086	-12.188392639160156	-213.8056182861328	-0.0	-0.0	-0.0	-0.0	-0.0	-0.0	77766.625	749.490966796875	-3411.093505859375
0.009000000000000001	-0.0	-0.0	-0.0	3.925262451171875	9.856985092163086	-505.4644775390625	-4.665266990661621	-12.437525749206545	-214.7463531494141	-0.0	-0.0	-0.0	-0.0	-0.0	-0.0	78088.953125	761.6314697265625	-3464.996337890625
0.0095	-0.0	-0.0	-0.0	3.726598739624024	9.504498481750488	-504.3567810058594	-4.847139358520508	-12.095677375793455	-215.1402740478516	-0.0	-0.0	-0.0	-0.0	-0.0	-0.0	78100.8671875	775.5469970703125	-3370.716796875
0.01	-0.0	-0.0	-0.0	4.014472961425781	9.788042068481444	-505.33587646484375	-4.842763900756836	-12.17241096496582	-216.5538024902344	-0.0	-0.0	-0.0	-0.0	-0.0	-0.0	78502.25	694.1527099609375	-3382.86865234375
0.0105	-0.0	-0.0	-0.0	4.014472961425781	9.395079612731934	-505.753662109375	-5.169520854949951	-12.220458984375	-216.06146240234372	-0.0	-0.0	-0.0	-0.0	-0.0	-0.0	78213.4921875	757.9546508789062	-3387.111328125
0.011	-0.0	-0.0	-0.0	3.9053242206573486	9.593223571777344	-504.3409423828125	-5.040335655212402	-12.18450164794922	-215.9667205810547	-0.0	-0.0	-0.0	-0.0	-0.0	-0.0	78634.5859375	767.6368408203125	-3470.6552734375
